<?xml version="1.0" encoding="UTF-8" standalone="no"?>
<!-- Created with Inkscape (http://www.inkscape.org/) -->

<svg
   xmlns:dc="http://purl.org/dc/elements/1.1/"
   xmlns:cc="http://creativecommons.org/ns#"
   xmlns:rdf="http://www.w3.org/1999/02/22-rdf-syntax-ns#"
   xmlns:svg="http://www.w3.org/2000/svg"
   xmlns="http://www.w3.org/2000/svg"
   xmlns:xlink="http://www.w3.org/1999/xlink"
   xmlns:sodipodi="http://sodipodi.sourceforge.net/DTD/sodipodi-0.dtd"
   xmlns:inkscape="http://www.inkscape.org/namespaces/inkscape"
   width="611.42859"
   height="611.42859"
   id="svg4781"
   version="1.1"
   inkscape:version="0.91 r13725"
   viewBox="0 0 611.42859 611.4286"
   sodipodi:docname="n0r1sk-logo-without-border.svg">
  <defs
     id="defs4783">
    <linearGradient
       inkscape:collect="always"
       xlink:href="#linearGradient4287"
       id="linearGradient4293"
       x1="607.74774"
       y1="342.26791"
       x2="693.89703"
       y2="206.90749"
       gradientUnits="userSpaceOnUse" />
    <linearGradient
       inkscape:collect="always"
       id="linearGradient4287">
      <stop
         style="stop-color:#d2eeff;stop-opacity:1;"
         offset="0"
         id="stop4289" />
      <stop
         style="stop-color:#f1e9b0;stop-opacity:0"
         offset="1"
         id="stop4291" />
    </linearGradient>
    <linearGradient
       inkscape:collect="always"
       xlink:href="#linearGradient4366"
       id="linearGradient4372"
       x1="119.83485"
       y1="388.56979"
       x2="286.2366"
       y2="180.47836"
       gradientUnits="userSpaceOnUse" />
    <linearGradient
       inkscape:collect="always"
       id="linearGradient4366">
      <stop
         style="stop-color:#ababab;stop-opacity:1;"
         offset="0"
         id="stop4368" />
      <stop
         style="stop-color:#ababab;stop-opacity:0;"
         offset="1"
         id="stop4370" />
    </linearGradient>
    <linearGradient
       inkscape:collect="always"
       xlink:href="#linearGradient4241"
       id="linearGradient4179"
       x1="392.61206"
       y1="736.43109"
       x2="388.57144"
       y2="490.22064"
       gradientUnits="userSpaceOnUse"
       gradientTransform="matrix(1,0,0,1.008319,0,-6.6510808)" />
    <linearGradient
       id="linearGradient4241"
       inkscape:collect="always">
      <stop
         id="stop4231"
         offset="0"
         style="stop-color:#0059ff;stop-opacity:1" />
      <stop
         style="stop-color:#83b9ff;stop-opacity:1"
         offset="1"
         id="stop4243" />
    </linearGradient>
    <linearGradient
       gradientTransform="matrix(1,0,0,0.87518698,0,99.788651)"
       inkscape:collect="always"
       xlink:href="#linearGradient4280"
       id="linearGradient4179-9"
       x1="388.57144"
       y1="929.32935"
       x2="388.57144"
       y2="490.22064"
       gradientUnits="userSpaceOnUse" />
    <linearGradient
       inkscape:collect="always"
       id="linearGradient4280">
      <stop
         style="stop-color:#0059ff;stop-opacity:1"
         offset="0"
         id="stop4282" />
      <stop
         id="stop4284"
         offset="1"
         style="stop-color:#96beff;stop-opacity:1" />
    </linearGradient>
    <linearGradient
       gradientTransform="matrix(1,0,0,0.62674219,3.4293946e-6,296.42152)"
       inkscape:collect="always"
       xlink:href="#linearGradient4280"
       id="linearGradient4179-9-8-5"
       x1="388.57144"
       y1="929.32935"
       x2="388.57144"
       y2="599.65076"
       gradientUnits="userSpaceOnUse" />
    <linearGradient
       gradientTransform="matrix(1,0,0,0.41907673,0,464.4511)"
       inkscape:collect="always"
       xlink:href="#linearGradient4281"
       id="linearGradient4179-9-8"
       x1="208.76428"
       y1="1016.1046"
       x2="382.51053"
       y2="490.22064"
       gradientUnits="userSpaceOnUse" />
    <linearGradient
       id="linearGradient4281"
       inkscape:collect="always">
      <stop
         id="stop4283"
         offset="0"
         style="stop-color:#0500ff;stop-opacity:1" />
      <stop
         style="stop-color:#448bff;stop-opacity:1"
         offset="1"
         id="stop4285" />
    </linearGradient>
  </defs>
  <sodipodi:namedview
     id="base"
     pagecolor="#ffffff"
     bordercolor="#ffffff"
     borderopacity="0.0"
     inkscape:pageopacity="0.0"
     inkscape:pageshadow="0"
     inkscape:zoom="0.35"
     inkscape:cx="322.85715"
     inkscape:cy="362.85715"
     inkscape:document-units="px"
     inkscape:current-layer="layer1"
     showgrid="false"
     inkscape:window-width="1536"
     inkscape:window-height="801"
     inkscape:window-x="-8"
     inkscape:window-y="-8"
     inkscape:window-maximized="1"
     showborder="false"
     fit-margin-top="0"
     fit-margin-left="0"
     fit-margin-right="0"
     fit-margin-bottom="0" />
  <metadata
     id="metadata4786">
    <rdf:RDF>
      <cc:Work
         rdf:about="">
        <dc:format>image/svg+xml</dc:format>
        <dc:type
           rdf:resource="http://purl.org/dc/dcmitype/StillImage" />
        <dc:title></dc:title>
      </cc:Work>
    </rdf:RDF>
  </metadata>
  <g
     inkscape:label="Layer 1"
     inkscape:groupmode="layer"
     id="layer1"
     transform="translate(597.14287,-283.79075)">
    <g
       transform="translate(-661.42858,95.714253)"
       id="g4297"
       inkscape:export-filename="C:\Users\Mario\g4297-248-2.png"
       inkscape:export-xdpi="36.5"
       inkscape:export-ydpi="36.5">
      <rect
         inkscape:export-ydpi="75.360001"
         inkscape:export-xdpi="75.360001"
         inkscape:export-filename="C:\Users\Mario\rect4136-4-8-2-0.png"
         y="188.07649"
         x="64.285713"
         height="611.42859"
         width="611.42859"
         id="rect4136"
         style="color:#000000;clip-rule:nonzero;display:inline;overflow:visible;visibility:visible;opacity:0.99900004;isolation:auto;mix-blend-mode:normal;color-interpolation:sRGB;color-interpolation-filters:linearRGB;solid-color:#000000;solid-opacity:1;fill:url(#linearGradient4293);fill-opacity:1;fill-rule:nonzero;stroke:none;stroke-width:3;stroke-linecap:butt;stroke-linejoin:miter;stroke-miterlimit:8;stroke-dasharray:none;stroke-dashoffset:0;stroke-opacity:1;color-rendering:auto;image-rendering:auto;shape-rendering:auto;text-rendering:auto;enable-background:accumulate" />
      <path
         sodipodi:nodetypes="scaccs"
         inkscape:connector-curvature="0"
         id="rect3478"
         d="m 553.52308,513.0218 c 36.22329,-54.66026 95.03027,-46.58346 95.03027,-46.58346 0,0 -26.08674,46.29375 -26.08674,71.73853 0,25.44479 26.08674,71.73854 26.08674,71.73854 l -143.47707,0 c 0,0 28.49927,-66.79317 48.4468,-96.89361 z"
         style="fill:#54545f;fill-opacity:1;fill-rule:evenodd;stroke:none;stroke-width:1px;stroke-linecap:butt;stroke-linejoin:miter;stroke-opacity:1" />
      <path
         style="fill:url(#linearGradient4372);fill-opacity:1"
         inkscape:connector-curvature="0"
         d="m 163.50313,237.50863 c -4.33715,-3.40758 -9.7767,-5.42726 -15.69001,-5.42726 -13.91793,0 -25.25018,11.22749 -25.60042,25.22018 -14.37135,5.448 -24.601207,19.47188 -24.601207,35.89858 0,19.40981 14.268297,35.45318 32.781007,37.98058 l 0,0.3527 131.14435,0 0,-0.066 c 18.28612,-1.0768 32.781,-16.4061 32.781,-35.16322 0,-18.09432 -13.48537,-32.99863 -30.84416,-34.99757 0.0661,-1.09789 0.11891,-2.21653 0.11891,-3.33504 0,-28.03733 -23.3959,-50.76141 -52.25183,-50.76141 -21.356,0 -39.72443,12.44956 -47.83209,30.29521"
         id="path4341" />
      <g
         id="g4286">
        <rect
           style="color:#000000;clip-rule:nonzero;display:inline;overflow:visible;visibility:visible;opacity:0.99900004;isolation:auto;mix-blend-mode:normal;color-interpolation:sRGB;color-interpolation-filters:linearRGB;solid-color:#000000;solid-opacity:1;fill:#ffdbbe;fill-opacity:1;fill-rule:nonzero;stroke:none;stroke-width:3;stroke-linecap:butt;stroke-linejoin:miter;stroke-miterlimit:8;stroke-dasharray:none;stroke-dashoffset:0;stroke-opacity:1;color-rendering:auto;image-rendering:auto;shape-rendering:auto;text-rendering:auto;enable-background:accumulate"
           id="rect4397"
           width="332.85699"
           height="227.14285"
           x="166.57143"
           y="443.79077"
           inkscape:export-filename="C:\Users\Mario\rect4136-4-8-2-0.png"
           inkscape:export-xdpi="75.360001"
           inkscape:export-ydpi="75.360001" />
        <path
           style="color:#000000;clip-rule:nonzero;display:inline;overflow:visible;visibility:visible;opacity:0.99900004;isolation:auto;mix-blend-mode:normal;color-interpolation:sRGB;color-interpolation-filters:linearRGB;solid-color:#000000;solid-opacity:1;fill:#d70000;fill-opacity:1;fill-rule:nonzero;stroke:none;stroke-width:3;stroke-linecap:butt;stroke-linejoin:miter;stroke-miterlimit:8;stroke-dasharray:none;stroke-dashoffset:0;stroke-opacity:1;color-rendering:auto;image-rendering:auto;shape-rendering:auto;text-rendering:auto;enable-background:accumulate"
           d="m 499.42853,447.3622 -332.85715,0 c 0,-91.91597 74.51261,-166.42858 166.42858,-166.42857 91.91597,0 166.42857,74.51261 166.42857,166.42857 z"
           id="path4340"
           inkscape:connector-curvature="0"
           sodipodi:nodetypes="ccsc"
           inkscape:export-filename="C:\Users\Mario\rect4136-4-8-2-0.png"
           inkscape:export-xdpi="75.360001"
           inkscape:export-ydpi="75.360001" />
        <g
           id="g4347"
           transform="translate(-1208.0006,442.36444)"
           style="opacity:0.99900004"
           inkscape:export-filename="C:\Users\Mario\rect4136-4-8-2-0.png"
           inkscape:export-xdpi="75.360001"
           inkscape:export-ydpi="75.360001">
          <g
             id="g4349"
             transform="matrix(0.1,0,0,-0.1,0,511)">
            <path
               id="path4351"
               d="m 14198.183,5664.5106 c -535.219,-95.8716 -890.137,-618.7403 -777.182,-1146.3428 40.794,-192.6489 140.453,-368.2145 285.639,-503.8919 112.914,-106.2862 236.283,-175.5657 399.499,-225.8272 76.854,-22.7639 97.725,-25.6454 249.58,-25.6454 148.027,-0.9468 174.619,1.8936 246.739,21.817 215.412,60.7174 406.167,173.6721 584.532,344.4628 l 77.8,74.9601 -78.747,108.1797 c -42.728,59.8117 -92.043,130.9847 -108.179,159.4293 l -29.433,52.1962 -89.203,-88.2562 c -149.92,-148.9734 -319.805,-252.4193 -467.832,-285.6389 -93.937,-20.8702 -230.602,-14.2428 -316.019,15.1897 -175.565,59.7705 -316.018,204.9569 -372.948,384.3096 -30.379,97.7241 -28.485,248.6323 5.681,344.4627 52.197,148.0268 149.92,264.7687 280.905,333.1013 271.396,141.3994 576.012,60.7174 869.225,-231.549 42.688,-41.7406 104.393,-110.0732 137.613,-151.8139 60.717,-75.9069 87.309,-113.8603 212.572,-306.5091 211.625,-323.5925 516.241,-596.8821 786.691,-704.115 152.801,-60.7173 204.009,-70.2263 386.244,-70.2263 152.76,0 172.725,2.8403 249.579,25.6454 273.29,83.5223 474.459,248.6321 597.828,488.7023 76.854,150.867 105.34,267.6089 105.34,438.3995 0,170.7906 -28.486,287.5325 -105.34,438.3996 -122.422,239.1233 -326.432,406.1679 -595.935,487.7556 -78.747,23.7106 -98.712,26.5508 -251.472,26.5508 -143.293,0 -176.513,-2.8402 -243.899,-20.8702 -210.678,-56.9302 -412.795,-176.5125 -587.414,-346.3563 l -77.8,-74.9601 78.747,-107.2329 c 43.634,-59.7706 92.043,-130.9436 107.233,-158.4825 l 29.391,-51.2495 98.712,96.7772 c 151.814,147.0799 282.799,227.7619 441.281,270.4493 94.884,26.551 242.951,21.8171 334.048,-9.509 173.672,-60.7173 303.669,-191.702 367.227,-372.9483 20.87,-57.877 25.604,-86.3627 25.604,-173.6721 0.946,-147.08 -31.326,-241.9637 -121.476,-361.5459 -104.392,-139.5057 -274.236,-221.0933 -457.376,-222.0401 -239.123,0 -501.998,161.3228 -734.495,450.7489 -60.717,75.9892 -87.268,113.9427 -212.531,306.5915 -253.366,388.138 -593.095,662.3744 -933.77,753.4709 -82.576,21.8171 -313.137,32.2729 -396.659,17.0832 z"
               inkscape:connector-curvature="0" />
          </g>
        </g>
        <text
           xml:space="preserve"
           style="font-style:normal;font-weight:normal;font-size:75.86359406px;line-height:125%;font-family:sans-serif;letter-spacing:0px;word-spacing:0px;opacity:0.99900004;fill:#000000;fill-opacity:1;stroke:none;stroke-width:1px;stroke-linecap:butt;stroke-linejoin:miter;stroke-opacity:1"
           x="217.0295"
           y="510.39078"
           id="text4360"
           sodipodi:linespacing="125%"
           inkscape:export-filename="C:\Users\Mario\rect4136-4-8-2-0.png"
           inkscape:export-xdpi="75.360001"
           inkscape:export-ydpi="75.360001"><tspan
             sodipodi:role="line"
             id="tspan4362"
             x="217.0295"
             y="510.39078">0</tspan></text>
        <text
           xml:space="preserve"
           style="font-style:normal;font-weight:normal;font-size:75.86359406px;line-height:125%;font-family:sans-serif;letter-spacing:0px;word-spacing:0px;opacity:0.99900004;fill:#000000;fill-opacity:1;stroke:none;stroke-width:1px;stroke-linecap:butt;stroke-linejoin:miter;stroke-opacity:1"
           x="413.84818"
           y="511.35062"
           id="text4360-3"
           sodipodi:linespacing="125%"
           inkscape:export-filename="C:\Users\Mario\rect4136-4-8-2-0.png"
           inkscape:export-xdpi="75.360001"
           inkscape:export-ydpi="75.360001"><tspan
             sodipodi:role="line"
             id="tspan4362-0"
             x="413.84818"
             y="511.35062">1</tspan></text>
      </g>
      <path
         inkscape:export-ydpi="75.360001"
         inkscape:export-xdpi="75.360001"
         inkscape:export-filename="C:\Users\Mario\rect4136-4-8-2-0.png"
         sodipodi:nodetypes="cccccccc"
         inkscape:connector-curvature="0"
         id="rect4136-4"
         d="m 64.285713,566.15123 c 79.523807,93.62961 101.904767,0 152.857147,0 43.80952,59.05868 116.19048,-44.65413 152.85715,0 68.09524,63.38004 101.90476,0 152.85714,0 63.80953,61.93959 101.90477,0 152.85715,0 l 0,233.35384 -611.428587,0 z"
         style="color:#000000;clip-rule:nonzero;display:inline;overflow:visible;visibility:visible;opacity:0.99900004;isolation:auto;mix-blend-mode:normal;color-interpolation:sRGB;color-interpolation-filters:linearRGB;solid-color:#000000;solid-opacity:1;fill:url(#linearGradient4179);fill-opacity:1;fill-rule:nonzero;stroke:none;stroke-width:3;stroke-linecap:butt;stroke-linejoin:miter;stroke-miterlimit:8;stroke-dasharray:none;stroke-dashoffset:0;stroke-opacity:1;color-rendering:auto;image-rendering:auto;shape-rendering:auto;text-rendering:auto;enable-background:accumulate" />
      <path
         inkscape:export-ydpi="75.360001"
         inkscape:export-xdpi="75.360001"
         inkscape:export-filename="C:\Users\Mario\rect4136-4-8-2-0.png"
         sodipodi:nodetypes="ccccccc"
         inkscape:connector-curvature="0"
         id="rect4136-4-8"
         d="m 64.285713,596.96178 c 68.674217,81.76396 62.765427,99.27886 235.714297,-1.55143 113.80953,96.90038 86.19047,-46.54291 237.14285,34.13147 72.38096,44.45291 87.61906,-32.58004 138.57144,-32.58004 l 0,202.54329 -611.428587,0 z"
         style="color:#000000;clip-rule:nonzero;display:inline;overflow:visible;visibility:visible;opacity:0.99900004;isolation:auto;mix-blend-mode:normal;color-interpolation:sRGB;color-interpolation-filters:linearRGB;solid-color:#000000;solid-opacity:1;fill:url(#linearGradient4179-9);fill-opacity:1;fill-rule:nonzero;stroke:none;stroke-width:3;stroke-linecap:butt;stroke-linejoin:miter;stroke-miterlimit:8;stroke-dasharray:none;stroke-dashoffset:0;stroke-opacity:1;color-rendering:auto;image-rendering:auto;shape-rendering:auto;text-rendering:auto;enable-background:accumulate" />
      <path
         inkscape:export-ydpi="75.360001"
         inkscape:export-xdpi="75.360001"
         inkscape:export-filename="C:\Users\Mario\rect4136-4-8-2-0.png"
         sodipodi:nodetypes="ccccccc"
         inkscape:connector-curvature="0"
         id="rect4136-4-8-2-0"
         d="m 64.285716,652.45902 c 68.674214,58.55311 218.328914,58.97412 219.551854,-5.15163 113.80953,69.39265 33.66254,7.07562 174.51339,34.54389 52.17791,-63.12056 134.08608,6.97323 217.36334,-29.39226 l 0,145.04606 -611.428584,0 z"
         style="color:#000000;clip-rule:nonzero;display:inline;overflow:visible;visibility:visible;opacity:0.99900004;isolation:auto;mix-blend-mode:normal;color-interpolation:sRGB;color-interpolation-filters:linearRGB;solid-color:#000000;solid-opacity:1;fill:url(#linearGradient4179-9-8-5);fill-opacity:1;fill-rule:nonzero;stroke:none;stroke-width:3;stroke-linecap:butt;stroke-linejoin:miter;stroke-miterlimit:8;stroke-dasharray:none;stroke-dashoffset:0;stroke-opacity:1;color-rendering:auto;image-rendering:auto;shape-rendering:auto;text-rendering:auto;enable-background:accumulate" />
      <path
         inkscape:export-ydpi="75.360001"
         inkscape:export-xdpi="75.360001"
         inkscape:export-filename="C:\Users\Mario\rect4136-4-8-2-0.png"
         sodipodi:nodetypes="cccscccc"
         inkscape:connector-curvature="0"
         id="rect4136-4-8-2"
         d="m 64.285713,702.51873 c 68.674217,39.15206 121.354277,43.49833 94.292947,1.27741 113.80953,46.40002 112.45443,-24.30702 263.40681,14.3233 90.73872,23.77496 96.98612,-4.36888 131.3646,-14.2128 34.37848,-9.84392 52.44133,53.16033 122.36423,-1.38791 l 0,96.98634 -611.428587,0 z"
         style="color:#000000;clip-rule:nonzero;display:inline;overflow:visible;visibility:visible;opacity:0.99900004;isolation:auto;mix-blend-mode:normal;color-interpolation:sRGB;color-interpolation-filters:linearRGB;solid-color:#000000;solid-opacity:1;fill:url(#linearGradient4179-9-8);fill-opacity:1;fill-rule:nonzero;stroke:none;stroke-width:3;stroke-linecap:butt;stroke-linejoin:miter;stroke-miterlimit:8;stroke-dasharray:none;stroke-dashoffset:0;stroke-opacity:1;color-rendering:auto;image-rendering:auto;shape-rendering:auto;text-rendering:auto;enable-background:accumulate" />
    </g>
  </g>
</svg>
